<?xml version="1.0" encoding="UTF-8"?>
<svg id="_레이어_1" data-name="레이어 1" xmlns="http://www.w3.org/2000/svg" viewBox="0 0 155.93 94.08">
  <defs>
    <style>
      .cls-1 {
        fill: #fff;
      }
    </style>
  </defs>
  <polygon class="cls-1" points="128.73 .05 128.73 12.26 122.47 0 113.93 0 113.92 0 101.23 0 101.23 0 62.12 0 39.3 0 32.02 0 26.74 10.35 26.74 0 0 0 0 71.16 17.2 71.16 17.2 71.17 31.06 71.17 61.17 71.17 66.45 71.17 93.19 71.17 96.73 71.17 101.23 71.17 123.46 71.17 123.46 60.82 128.73 71.16 128.73 71.17 128.74 71.17 155.49 71.17 155.49 .05 128.73 .05"/>
  <g>
    <path class="cls-1" d="M4.54,93.8l-4.54-13.08h2.56c1.5,4.58,2.46,7.43,3.28,10.36.8-2.91,1.69-5.78,3.2-10.36h2.5l-4.52,13.08h-2.48Z"/>
    <path class="cls-1" d="M16.95,87.54c0-.52-.11-.87-.35-1.11-.26-.26-.7-.39-1.28-.39-1.13,0-1.63.57-1.74,1.59l-2.07-.18c.15-2,1.63-3.11,3.98-3.11,1.26,0,2.15.3,2.76.89.57.54.78,1.3.78,2.74v3.39c0,1.09.07,2,.26,2.45h-2.09c-.07-.3-.19-.87-.19-1.15-.7.85-1.7,1.32-3.02,1.32-1.69,0-2.87-1.06-2.87-2.71,0-1.19.59-1.96,1.69-2.46.91-.41,2.69-.67,4.15-.76v-.5ZM16.95,89.49c-1.06.06-2.3.24-2.95.56-.57.26-.8.61-.8,1.13,0,.67.44,1.17,1.41,1.17.83,0,1.52-.35,1.93-.96.3-.43.39-.94.41-1.46v-.43Z"/>
    <path class="cls-1" d="M27.13,93.8v-5.3c0-.72-.07-1.26-.33-1.63-.24-.35-.65-.52-1.24-.52s-1.2.31-1.57.81c-.46.61-.54,1.3-.54,2.19v4.45h-2.17v-9.22h2.15v1.37c.67-.94,1.76-1.54,3.06-1.54,1.11,0,1.83.39,2.3,1.09.37.56.52,1.28.52,2.52v5.78h-2.17Z"/>
    <path class="cls-1" d="M31.48,82.76v-2.04h2.2v2.04h-2.2ZM33.69,93.8h-2.19v-9.22h2.19v9.22Z"/>
    <path class="cls-1" d="M40.51,93.77c-.48.13-1.07.2-1.61.2-.91,0-1.52-.22-1.89-.67-.39-.44-.52-1.09-.52-1.95v-5.04h-1.45v-1.74h1.48v-3h2.15v3h1.8v1.74h-1.8v4.61c0,.94.28,1.28.94,1.28.26,0,.59-.06.89-.17v1.72Z"/>
    <path class="cls-1" d="M47.53,87.54c0-.52-.11-.87-.35-1.11-.26-.26-.7-.39-1.28-.39-1.13,0-1.63.57-1.74,1.59l-2.07-.18c.15-2,1.63-3.11,3.98-3.11,1.26,0,2.15.3,2.76.89.57.54.78,1.3.78,2.74v3.39c0,1.09.07,2,.26,2.45h-2.09c-.07-.3-.19-.87-.19-1.15-.7.85-1.7,1.32-3.02,1.32-1.69,0-2.87-1.06-2.87-2.71,0-1.19.59-1.96,1.69-2.46.91-.41,2.69-.67,4.15-.76v-.5ZM47.53,89.49c-1.06.06-2.3.24-2.95.56-.57.26-.8.61-.8,1.13,0,.67.44,1.17,1.41,1.17.83,0,1.52-.35,1.93-.96.3-.43.39-.94.41-1.46v-.43Z"/>
    <path class="cls-1" d="M52.68,90.88c.48.94,1.33,1.5,2.35,1.5.94,0,1.46-.41,1.46-.96,0-.61-.31-.87-1.7-1.32l-.98-.31c-1.43-.44-2.33-1.28-2.33-2.69s1.3-2.78,3.58-2.78c1.46,0,2.82.56,3.63,1.85l-1.61,1.09c-.46-.82-1.17-1.3-2.06-1.3s-1.37.37-1.37.91.3.81,1.48,1.19l.98.3c1.63.52,2.56,1.28,2.56,2.76,0,1.7-1.43,2.95-3.72,2.95-1.89,0-3.17-.91-3.95-2.08l1.69-1.11Z"/>
    <path class="cls-1" d="M73.23,93.8l-1.04-3.06h-5.17l-1.06,3.06h-2.54l4.96-13.08h2.61l4.78,13.08h-2.56ZM71.62,88.89c-.74-2.13-1.37-3.91-1.98-5.82-.43,1.32-.89,2.61-2.04,5.82h4.02Z"/>
    <path class="cls-1" d="M77.81,90.88c.48.94,1.33,1.5,2.35,1.5.94,0,1.46-.41,1.46-.96,0-.61-.31-.87-1.7-1.32l-.98-.31c-1.43-.44-2.33-1.28-2.33-2.69s1.3-2.78,3.58-2.78c1.46,0,2.82.56,3.63,1.85l-1.61,1.09c-.46-.82-1.17-1.3-2.06-1.3s-1.37.37-1.37.91.3.81,1.48,1.19l.98.3c1.63.52,2.56,1.28,2.56,2.76,0,1.7-1.43,2.95-3.72,2.95-1.89,0-3.17-.91-3.95-2.08l1.69-1.11Z"/>
    <path class="cls-1" d="M86.3,90.88c.48.94,1.33,1.5,2.35,1.5.94,0,1.46-.41,1.46-.96,0-.61-.31-.87-1.7-1.32l-.98-.31c-1.43-.44-2.33-1.28-2.33-2.69s1.3-2.78,3.58-2.78c1.46,0,2.82.56,3.63,1.85l-1.61,1.09c-.46-.82-1.17-1.3-2.06-1.3s-1.37.37-1.37.91.3.81,1.48,1.19l.98.3c1.63.52,2.56,1.28,2.56,2.76,0,1.7-1.43,2.95-3.72,2.95-1.89,0-3.17-.91-3.95-2.08l1.69-1.11Z"/>
    <path class="cls-1" d="M102.03,91.49c-.69,1.67-2.09,2.59-4.02,2.59-2.96,0-4.56-1.93-4.56-4.98s1.78-4.78,4.46-4.78c2.93,0,4.15,2.13,4.17,5.43h-6.45c.07,1.59.94,2.5,2.41,2.5.94,0,1.74-.37,2.07-1.43l1.91.67ZM99.88,88.19c-.07-1.44-.83-2.19-2.02-2.19s-2.06.74-2.2,2.19h4.22Z"/>
    <path class="cls-1" d="M108.33,93.77c-.48.13-1.07.2-1.61.2-.91,0-1.52-.22-1.89-.67-.39-.44-.52-1.09-.52-1.95v-5.04h-1.45v-1.74h1.48v-3h2.15v3h1.8v1.74h-1.8v4.61c0,.94.28,1.28.94,1.28.26,0,.59-.06.89-.17v1.72Z"/>
    <path class="cls-1" d="M116.61,80.72c2.85,4.78,4.54,7.45,5.8,9.67-.07-2-.09-4.65-.09-9.67h2.33v13.08h-2.57c-2.72-4.48-4.45-7.3-5.82-9.6.06,1.13.07,3.65.07,9.6h-2.33v-13.08h2.61Z"/>
    <path class="cls-1" d="M131.07,94.06c-2.89,0-4.52-1.82-4.52-4.89s1.8-4.85,4.65-4.85,4.39,1.83,4.39,4.96-1.81,4.78-4.52,4.78ZM131.14,86.13c-1.37,0-2.37,1.06-2.37,2.98,0,2.09.96,3.13,2.32,3.13s2.32-.95,2.32-3.02-.89-3.09-2.26-3.09Z"/>
    <path class="cls-1" d="M143.37,93.8v-1.3c-.59.87-1.46,1.48-2.76,1.48-2.13,0-3.7-1.63-3.7-4.83,0-3.02,1.7-4.76,3.83-4.76,1.37,0,2.13.5,2.63,1.2v-4.87h2.11v13.08h-2.11ZM141.28,86.19c-1.28,0-2.15.98-2.15,2.95,0,1.85.78,3.04,2.06,3.04s2.19-1,2.19-2.96c0-1.85-.8-3.02-2.09-3.02Z"/>
    <path class="cls-1" d="M155.88,91.49c-.69,1.67-2.09,2.59-4.02,2.59-2.96,0-4.56-1.93-4.56-4.98s1.78-4.78,4.46-4.78c2.93,0,4.15,2.13,4.17,5.43h-6.45c.07,1.59.94,2.5,2.41,2.5.94,0,1.74-.37,2.07-1.43l1.91.67ZM153.73,88.19c-.07-1.44-.83-2.19-2.02-2.19s-2.06.74-2.2,2.19h4.22Z"/>
  </g>
</svg>