<?xml version="1.0" encoding="UTF-8"?>
<svg id="_레이어_1" data-name="레이어 1" xmlns="http://www.w3.org/2000/svg" viewBox="0 0 73.11 167.62">
  <defs>
    <style>
      .cls-1 {
        fill: #fff;
      }
    </style>
  </defs>
  <polygon class="cls-1" points="3.27 135.85 33.51 135.81 6.92 135.85 17.5 162.21 17.49 162.21 37.41 167.62 56.58 162.21 56.5 162.21 66.22 135.77 70.71 135.77 73.04 103.01 0 103.01 3.27 135.85"/>
  <polygon class="cls-1" points="73.11 103 49.55 78.73 54.38 78.73 54.38 73.85 35.68 73.85 35.66 72.47 51.69 72.47 51.69 64.99 54.25 64.99 54.25 60.1 18.8 60.1 18.8 64.99 21.06 64.99 21.06 73.85 18.93 73.85 18.93 78.73 23.62 78.73 .06 103 73.11 103"/>
  <polygon class="cls-1" points="25.16 39.46 26.81 53.99 30.48 53.99 29.1 58.14 43.6 58.14 42.27 53.99 45.94 53.99 47.59 39.46 47.6 39.46 47.6 39.45 47.6 39.41 47.58 39.41 43.81 27.92 28.63 27.92 25.17 39.41 25.15 39.41 25.15 39.45 25.15 39.46 25.16 39.46"/>
  <rect class="cls-1" x="30.29" width="12.11" height="12.62"/>
</svg>