<?xml version="1.0" encoding="UTF-8"?>
<svg id="_레이어_1" data-name="레이어 1" xmlns="http://www.w3.org/2000/svg" viewBox="0 0 99.4 168.64">
  <defs>
    <style>
      .cls-1 {
        fill: #fff;
      }
    </style>
  </defs>
  <polygon class="cls-1" points="49.11 168.64 68.73 160.61 28.66 160.61 49.11 168.64"/>
  <polygon class="cls-1" points="38.02 89.24 39.64 89.24 39.64 89.24 59.76 89.24 90.7 89.24 99.4 89.24 82.3 31.93 78.59 31.93 78.59 31.91 78.59 30.08 78.27 30.08 78.27 24.76 71.04 24.76 65.2 0 33.79 0 28.26 24.76 22.05 24.76 22.05 30.08 19.59 30.08 19.59 31.91 19.59 31.93 17.11 31.93 0 89.24 9.48 89.24 9.48 89.24 0 89.24 14.2 136.81 18.81 136.81 21.67 158.01 28.59 158.01 28.59 160.61 68.8 160.61 68.8 158.01 74.7 158.01 77.55 136.81 85.2 136.81 86.34 133.3 86.4 133.3 86.44 132.97 99.4 92.76 99.4 90.93 38.02 90.93 38.02 89.24"/>
</svg>