<?xml version="1.0" encoding="UTF-8"?>
<svg id="_레이어_1" data-name="레이어 1" xmlns="http://www.w3.org/2000/svg" viewBox="0 0 75.2 171.38">
  <defs>
    <style>
      .cls-1 {
        fill: #fff;
      }
    </style>
  </defs>
  <polygon class="cls-1" points="17.22 40.4 23.74 60.23 49.95 60.23 55.93 40.4 55.95 40.4 55.95 40.33 55.95 40.31 55.94 40.31 53.09 15.22 34.92 15.22 34.92 13.45 48.82 13.45 44.38 0 28.5 0 23.74 15.22 20.06 15.22 17.2 40.31 17.19 40.31 17.2 40.33 17.19 40.4 17.22 40.4"/>
  <polygon class="cls-1" points="55.26 61.83 17.87 61.83 16.64 78.37 56.5 78.37 55.26 61.83"/>
  <polygon class="cls-1" points="63.89 89.98 63.89 80.46 52.98 80.46 52.98 91.83 56.5 91.83 56.5 145.88 52.98 145.88 52.98 154.84 22.1 154.84 22.1 145.88 18.71 145.88 18.71 91.83 22.1 91.83 22.1 80.46 11.18 80.46 11.18 89.45 0 89.45 0 147.13 11.18 147.13 11.18 157.25 17.34 157.25 18.44 171.38 57.16 171.38 58.25 157.25 63.89 157.25 63.89 147.65 75.2 147.65 75.2 89.98 63.89 89.98"/>
</svg>