<?xml version="1.0" encoding="UTF-8"?>
<svg id="_레이어_1" data-name="레이어 1" xmlns="http://www.w3.org/2000/svg" viewBox="0 0 101.96 176.19">
  <defs>
    <style>
      .cls-1 {
        fill: #fff;
      }
    </style>
  </defs>
  <polygon class="cls-1" points="5.5 107.78 12.67 107.78 18.22 124.82 62.74 124.82 68.3 107.78 73.93 107.78 80.83 91.89 0 91.92 5.5 107.78"/>
  <polygon class="cls-1" points="80.76 76.16 88.52 50.17 95.12 50.17 101.96 10.4 82.77 10.4 82.77 0 70.77 0 70.77 12.49 82.51 12.49 82.51 45.66 75.57 45.66 72.6 28.11 68.51 28.11 62.74 10.4 18.22 10.4 13.08 26.19 39.11 26.19 39.11 28.11 8.2 28.11 .08 76.16 .14 76.16 0 91.89 80.83 91.89 80.7 76.16 80.72 76.16 80.76 76.16"/>
  <polygon class="cls-1" points="29.29 156.74 29.29 150.07 36.18 150.07 36.18 137.83 48.92 137.83 48.92 126.76 25.62 126.76 25.62 133.88 17.03 133.88 17.03 156.74 13.73 156.74 9.62 176.19 68.6 176.19 65.44 156.74 29.29 156.74"/>
</svg>