<?xml version="1.0" encoding="UTF-8"?>
<svg id="_레이어_1" data-name="레이어 1" xmlns="http://www.w3.org/2000/svg" viewBox="0 0 68.8 174.61">
  <defs>
    <style>
      .cls-1 {
        fill: #fff;
      }
    </style>
  </defs>
  <polygon class="cls-1" points="47.5 113.2 47.5 113.18 53.3 113.18 54.83 107 57.89 107 60.69 86.16 63.53 86.16 68.8 70.32 60.93 21.88 57.9 21.88 52.07 7.24 52.07 0 17.71 0 17.71 7.24 17.62 7.24 12.64 21.88 8.59 21.88 0 70.32 6.04 86.16 9.34 86.16 9.34 86.21 35.01 86.21 35.01 87.9 9.57 87.9 12.13 107 15.65 107 17.17 113.18 22.67 113.18 22.67 144.13 16.49 144.13 11.95 167.24 35.22 174.61 59.13 167.24 54.58 144.13 47.5 144.13 47.5 114.89 39.85 114.89 39.85 113.2 47.5 113.2"/>
</svg>