<?xml version="1.0" encoding="UTF-8"?>
<svg id="_레이어_1" data-name="레이어 1" xmlns="http://www.w3.org/2000/svg" viewBox="0 0 114.1 148.75">
  <defs>
    <style>
      .cls-1 {
        fill: #fff;
      }
    </style>
  </defs>
  <polygon class="cls-1" points="0 89.05 0 98.76 8.4 101 15.3 99.88 15.3 87.93 8.4 86.82 0 89.05"/>
  <polygon class="cls-1" points="17.67 94.55 15.33 94.55 15.33 99.91 17.67 99.91 17.67 106.51 29.58 117.69 29.58 70.13 17.67 81.3 17.67 94.55"/>
  <polygon class="cls-1" points="46.49 39.3 32.12 65.02 32.12 123.02 46.49 148.74 46.49 148.75 51.19 148.75 51.19 39.29 46.49 39.29 46.49 39.3"/>
  <polygon class="cls-1" points="67.48 28.05 61.4 28.05 61.4 11.67 49.07 11.67 48.93 8.18 16.9 0 17.7 19.86 3.19 19.86 3.19 36.25 20.26 36.25 20.26 21.79 44.33 20.82 44.33 28.06 54.14 28.06 54.14 39.29 54.14 42.57 54.14 148.75 73.63 148.75 73.63 39.29 67.48 39.29 67.48 28.05"/>
  <polygon class="cls-1" points="114.1 66.01 100.6 66.01 98.98 66.01 97.36 66.01 97.36 66.11 85.22 75.16 85.22 65.02 73.64 39.29 73.64 148.75 85.22 123.02 85.22 113.33 97.36 122.38 97.36 122.47 100.6 122.47 100.6 122.45 114.1 122.45 114.1 66.01"/>
</svg>