<?xml version="1.0" encoding="UTF-8"?>
<svg id="_레이어_1" data-name="레이어 1" xmlns="http://www.w3.org/2000/svg" viewBox="0 0 68.15 176.42">
  <defs>
    <style>
      .cls-1 {
        fill: #fff;
      }
    </style>
  </defs>
  <polygon class="cls-1" points="26.89 46.77 25.6 53.48 27.07 61.13 30.26 61.13 30.26 64.42 38.54 64.42 38.54 61.13 41.68 61.13 43.16 53.48 41.87 46.77 50.91 46.77 55.04 25.92 50.91 5.06 42.6 5.06 42.6 0 25.54 0 25.54 5.06 17.85 5.06 13.57 25.92 17.85 46.77 26.89 46.77"/>
  <polygon class="cls-1" points="52.73 131.06 62.71 131.06 68.15 100.64 62.71 73.74 51.55 73.74 48.86 65.29 20.51 65.29 18.42 73.74 5.61 73.74 0 103.93 5.61 131.06 16.1 131.06 20.56 144.5 24.5 144.47 25.97 148.91 29.85 148.88 29.85 153.14 20.56 153.17 17.34 160.57 11.21 160.57 6.34 176.42 61.02 176.42 57.55 160.57 51.87 160.57 48.36 153.06 39.47 153.1 39.47 148.82 42.92 148.8 44.3 144.35 48.63 144.32 52.26 132.58 29.85 132.58 29.85 131.06 52.73 131.06"/>
</svg>