<?xml version="1.0" encoding="UTF-8"?>
<svg id="_레이어_1" data-name="레이어 1" xmlns="http://www.w3.org/2000/svg" viewBox="0 0 113.53 144.58">
  <defs>
    <style>
      .cls-1 {
        fill: #fff;
      }
    </style>
  </defs>
  <polygon class="cls-1" points="28.34 21.24 28.34 29.09 30.92 29.09 33.51 37.61 78.49 37.61 81.39 29.09 84.3 29.09 84.3 21.24 94.32 21.24 99.01 2.38 56.77 0 15.14 2.38 18.32 21.24 28.34 21.24"/>
  <polygon class="cls-1" points="110.36 121.79 102.86 121.79 99.01 72.49 96.52 72.49 94.17 57 87.04 57 84.15 47.76 78.04 47.76 74.15 39.24 36.77 39.24 33.85 47.76 28.2 47.76 25.13 57 18.18 57 15.68 72.49 11.74 72.49 8.11 121.79 3.37 121.79 0 140.65 56.77 144.58 113.53 140.65 110.36 121.79"/>
</svg>