<?xml version="1.0" encoding="UTF-8"?>
<svg id="_레이어_1" data-name="레이어 1" xmlns="http://www.w3.org/2000/svg" viewBox="0 0 80.48 176.04">
  <defs>
    <style>
      .cls-1 {
        fill: #fff;
      }
    </style>
  </defs>
  <polygon class="cls-1" points="0 0 0 38.68 5.87 67.54 9.71 83.14 17.12 83.14 38.92 83.14 38.92 84.73 17.12 84.73 17.12 102.98 23.14 125.51 34.4 125.51 31.54 141.16 33.48 152.37 11.47 152.37 11.47 169.16 19.17 169.16 20.35 176.04 59.43 176.04 61.07 169.16 68.18 169.16 68.18 152.37 46.98 152.37 48.95 141.16 46.04 125.51 39.78 125.51 39.78 123.92 57.82 123.92 63.36 102.98 63.36 83.14 69.77 83.14 73.76 67.54 80.48 37.18 80.48 0 0 0"/>
</svg>