<?xml version="1.0" encoding="UTF-8"?>
<svg id="_레이어_1" data-name="레이어 1" xmlns="http://www.w3.org/2000/svg" viewBox="0 0 86.18 122.68">
  <defs>
    <style>
      .cls-1 {
        fill: #fff;
      }
    </style>
  </defs>
  <polygon class="cls-1" points="15.18 13.71 19.31 22.29 26.44 22.29 26.44 28.75 61.48 28.75 61.48 22.29 67.78 22.29 71.92 13.71 76.17 13.71 78.64 0 9.87 0 12.35 13.71 15.18 13.71"/>
  <polygon class="cls-1" points="86.18 49.51 75.74 39.03 66.56 39.03 66.55 38.92 42.01 38.92 42.01 37.23 66.39 37.23 65.57 28.8 22.99 28.8 22 39.03 10.44 39.03 0 49.51 .05 49.51 .05 104.05 85.99 104.05 85.99 49.51 86.18 49.51"/>
  <polygon class="cls-1" points="4.36 116.19 6.62 116.19 4.62 116.55 43.68 122.68 80.17 116.19 81.25 116.19 81.25 106.07 4.36 106.07 4.36 116.19"/>
</svg>