<?xml version="1.0" encoding="UTF-8"?>
<svg id="_레이어_1" data-name="레이어 1" xmlns="http://www.w3.org/2000/svg" viewBox="0 0 218.3 135.09">
  <defs>
    <style>
      .cls-1 {
        fill: #f0f0f0;
      }
    </style>
  </defs>
  <g>
    <path class="cls-1" d="M155.98,61.21l-5.26-15.15h2.96c1.74,5.3,2.85,8.61,3.8,12,.92-3.37,1.95-6.7,3.71-12h2.9l-5.24,15.15h-2.88Z"/>
    <path class="cls-1" d="M170.29,53.95c0-.6-.13-1.01-.41-1.29-.3-.3-.82-.45-1.48-.45-1.31,0-1.89.67-2.02,1.85l-2.4-.21c.17-2.32,1.89-3.61,4.61-3.61,1.46,0,2.49.34,3.2,1.03.67.62.9,1.5.9,3.18v3.93c0,1.27.09,2.32.3,2.83h-2.43c-.09-.34-.21-1.01-.21-1.33-.82.99-1.97,1.52-3.5,1.52-1.95,0-3.33-1.22-3.33-3.13,0-1.37.69-2.28,1.95-2.85,1.05-.47,3.11-.77,4.81-.88v-.58ZM170.29,56.21c-1.22.06-2.66.28-3.41.64-.67.3-.92.71-.92,1.31,0,.77.52,1.35,1.63,1.35.97,0,1.76-.41,2.23-1.12.34-.49.45-1.09.47-1.7v-.49Z"/>
    <path class="cls-1" d="M182.01,61.21v-6.14c0-.84-.09-1.46-.39-1.89-.28-.41-.75-.6-1.44-.6s-1.4.36-1.82.94c-.54.71-.62,1.5-.62,2.53v5.15h-2.51v-10.69h2.49v1.59c.77-1.09,2.04-1.78,3.54-1.78,1.29,0,2.12.45,2.66,1.27.43.64.6,1.48.6,2.92v6.7h-2.51Z"/>
    <path class="cls-1" d="M186.99,48.42v-2.36h2.55v2.36h-2.55ZM189.54,61.21h-2.53v-10.69h2.53v10.69Z"/>
    <path class="cls-1" d="M197.38,61.17c-.56.15-1.24.24-1.87.24-1.05,0-1.76-.26-2.19-.77-.45-.52-.6-1.27-.6-2.25v-5.84h-1.67v-2.02h1.72v-3.48h2.49v3.48h2.08v2.02h-2.08v5.34c0,1.09.32,1.48,1.09,1.48.3,0,.69-.06,1.03-.19v2Z"/>
    <path class="cls-1" d="M205.45,53.95c0-.6-.13-1.01-.41-1.29-.3-.3-.82-.45-1.48-.45-1.31,0-1.89.67-2.02,1.85l-2.4-.21c.17-2.32,1.89-3.61,4.61-3.61,1.46,0,2.49.34,3.2,1.03.67.62.9,1.5.9,3.18v3.93c0,1.27.09,2.32.3,2.83h-2.43c-.09-.34-.21-1.01-.21-1.33-.82.99-1.97,1.52-3.5,1.52-1.95,0-3.33-1.22-3.33-3.13,0-1.37.69-2.28,1.95-2.85,1.05-.47,3.11-.77,4.81-.88v-.58ZM205.45,56.21c-1.22.06-2.66.28-3.41.64-.67.3-.92.71-.92,1.31,0,.77.52,1.35,1.63,1.35.97,0,1.76-.41,2.23-1.12.34-.49.45-1.09.47-1.7v-.49Z"/>
    <path class="cls-1" d="M211.35,57.82c.56,1.09,1.55,1.74,2.73,1.74,1.09,0,1.7-.47,1.7-1.12,0-.71-.36-1.01-1.97-1.52l-1.14-.36c-1.65-.52-2.7-1.48-2.7-3.11s1.5-3.22,4.14-3.22c1.7,0,3.26.64,4.21,2.15l-1.87,1.27c-.54-.94-1.35-1.5-2.38-1.5s-1.59.43-1.59,1.05.34.94,1.72,1.37l1.14.34c1.89.6,2.96,1.48,2.96,3.2,0,1.97-1.65,3.41-4.31,3.41-2.19,0-3.67-1.05-4.57-2.4l1.95-1.29Z"/>
    <path class="cls-1" d="M162.07,83.83l-1.2-3.54h-5.99l-1.22,3.54h-2.94l5.75-15.15h3.03l5.54,15.15h-2.96ZM160.21,78.14c-.86-2.47-1.59-4.53-2.3-6.74-.49,1.52-1.03,3.03-2.36,6.74h4.66Z"/>
    <path class="cls-1" d="M167.31,80.44c.56,1.09,1.55,1.74,2.73,1.74,1.09,0,1.7-.47,1.7-1.12,0-.71-.36-1.01-1.97-1.52l-1.14-.36c-1.65-.52-2.7-1.48-2.7-3.11s1.5-3.22,4.14-3.22c1.7,0,3.26.64,4.21,2.15l-1.87,1.27c-.54-.94-1.35-1.5-2.38-1.5s-1.59.43-1.59,1.05.34.94,1.72,1.37l1.14.34c1.89.6,2.96,1.48,2.96,3.2,0,1.97-1.65,3.41-4.31,3.41-2.19,0-3.67-1.05-4.57-2.4l1.95-1.29Z"/>
    <path class="cls-1" d="M177.07,80.44c.56,1.09,1.55,1.74,2.73,1.74,1.09,0,1.7-.47,1.7-1.12,0-.71-.36-1.01-1.97-1.52l-1.14-.36c-1.65-.52-2.7-1.48-2.7-3.11s1.5-3.22,4.14-3.22c1.7,0,3.26.64,4.21,2.15l-1.87,1.27c-.54-.94-1.35-1.5-2.38-1.5s-1.59.43-1.59,1.05.34.94,1.72,1.37l1.14.34c1.89.6,2.96,1.48,2.96,3.2,0,1.97-1.65,3.41-4.31,3.41-2.19,0-3.67-1.05-4.57-2.4l1.95-1.29Z"/>
    <path class="cls-1" d="M195.23,81.15c-.79,1.93-2.43,3-4.66,3-3.43,0-5.28-2.23-5.28-5.77s2.06-5.54,5.17-5.54c3.39,0,4.81,2.47,4.83,6.29h-7.47c.09,1.85,1.09,2.9,2.79,2.9,1.09,0,2.02-.43,2.4-1.65l2.21.77ZM192.74,77.33c-.09-1.67-.97-2.53-2.34-2.53s-2.38.86-2.55,2.53h4.89Z"/>
    <path class="cls-1" d="M202.46,83.79c-.56.15-1.24.24-1.87.24-1.05,0-1.76-.26-2.19-.77-.45-.52-.6-1.27-.6-2.25v-5.84h-1.67v-2.02h1.72v-3.48h2.49v3.48h2.08v2.02h-2.08v5.34c0,1.09.32,1.48,1.09,1.48.3,0,.69-.06,1.03-.19v2Z"/>
    <path class="cls-1" d="M155.14,91.3c3.31,5.54,5.26,8.63,6.72,11.2-.09-2.32-.11-5.39-.11-11.2h2.7v15.15h-2.98c-3.16-5.19-5.15-8.46-6.74-11.12.06,1.31.09,4.23.09,11.12h-2.7v-15.15h3.03Z"/>
    <path class="cls-1" d="M171.82,106.76c-3.35,0-5.24-2.1-5.24-5.67s2.08-5.62,5.39-5.62,5.09,2.12,5.09,5.75-2.1,5.54-5.24,5.54ZM171.9,97.57c-1.59,0-2.75,1.22-2.75,3.46,0,2.43,1.12,3.63,2.68,3.63s2.68-1.09,2.68-3.5-1.03-3.58-2.62-3.58Z"/>
    <path class="cls-1" d="M186,106.46v-1.5c-.69,1.01-1.7,1.72-3.2,1.72-2.47,0-4.29-1.89-4.29-5.6,0-3.5,1.97-5.52,4.44-5.52,1.59,0,2.47.58,3.05,1.4v-5.65h2.45v15.15h-2.45ZM183.58,97.63c-1.48,0-2.49,1.14-2.49,3.41,0,2.15.9,3.52,2.38,3.52s2.53-1.16,2.53-3.43c0-2.15-.92-3.5-2.43-3.5Z"/>
    <path class="cls-1" d="M200.43,103.77c-.79,1.93-2.43,3-4.66,3-3.43,0-5.28-2.23-5.28-5.77s2.06-5.54,5.17-5.54c3.39,0,4.81,2.47,4.83,6.29h-7.47c.09,1.85,1.09,2.9,2.79,2.9,1.09,0,2.02-.43,2.4-1.65l2.21.77ZM197.94,99.95c-.09-1.67-.97-2.53-2.34-2.53s-2.38.86-2.55,2.53h4.89Z"/>
  </g>
  <polygon class="cls-1" points="106.32 31.98 106.32 46.67 98.77 31.92 88.51 31.92 88.5 31.92 72.41 31.92 88.73 0 52.5 0 46.16 12.45 46.16 0 13.99 0 13.99 85.61 25.29 85.61 0 135.09 26.03 135.09 36.22 135.09 42.57 135.09 48.77 135.09 74.74 135.09 74.74 117.53 99.97 117.53 99.97 105.08 106.32 117.52 106.32 117.53 106.32 117.53 138.51 117.53 138.51 31.98 106.32 31.98"/>
</svg>